<svg width="45" height="54" viewBox="0 0 45 54" fill="none" xmlns="http://www.w3.org/2000/svg">
<path d="M39.1304 6.30123C26.4382 6.30123 20.7478 0.355013 20.6669 0.268973C20.3365 -0.0901836 19.6626 -0.0893943 19.3322 0.269763C19.2765 0.329753 13.6478 6.30044 0.869565 6.30044C0.389565 6.30044 0 6.65407 0 7.0898V22.1547C0 30.39 4.07826 38.2165 10.9096 43.0891C13.6635 45.0538 16.6382 46.4755 19.7522 47.3138C19.8331 47.3359 19.9165 47.3469 20 47.3469C20.0835 47.3469 20.1661 47.3359 20.2478 47.3138C23.3618 46.4747 26.3365 45.0538 29.0904 43.0891C35.9217 38.2157 40 30.39 40 22.1547V7.09058C40 6.65486 39.6104 6.30123 39.1304 6.30123ZM38.2608 22.1554C38.2608 29.9101 34.4313 37.2724 28.0157 41.8491C25.5087 43.6378 22.8131 44.9433 20 45.7335C17.1869 44.9442 14.4913 43.6378 11.9843 41.8491C5.5687 37.2732 1.73913 29.9101 1.73913 22.1554V7.87126C12.3843 7.65655 18.1435 3.53217 20 1.91557C21.8565 3.53296 27.6157 7.65655 38.2608 7.87126V22.1554Z" fill="#AACBDE"/>
<path d="M19.5114 6.30424C16.8897 7.92163 12.4132 10.0055 5.97753 10.7507C5.54275 10.8012 5.21753 11.1367 5.21753 11.5337V22.1561C5.21753 28.9501 8.55057 35.3841 14.1341 39.3672C15.8923 40.6215 17.7593 41.6051 19.6828 42.2902C19.7853 42.3265 19.8923 42.3446 20.0002 42.3446C20.1079 42.3446 20.2157 42.3265 20.3175 42.2902C22.2393 41.6058 24.1071 40.6222 25.8671 39.3672C31.4497 35.3841 34.7828 28.9501 34.7828 22.1561V11.5337C34.7828 11.1367 34.4575 10.8012 34.0228 10.7507C27.5871 10.0055 23.1106 7.92163 20.4888 6.30424C20.1941 6.1219 19.8063 6.1219 19.5114 6.30424ZM33.0436 12.2213V22.1553C33.0436 28.4693 29.9593 34.4393 24.7923 38.1248C23.2636 39.2149 21.6532 40.0815 20.0002 40.7028C18.3471 40.0808 16.7367 39.2149 15.2088 38.1248C10.0419 34.4384 6.95666 28.4686 6.95666 22.1545V12.2213C12.9558 11.4153 17.2828 9.50113 20.0002 7.90347C22.7175 9.50113 27.0445 11.4153 33.0436 12.2213Z" fill="#AACBDE"/>
</svg>
