<svg width="48" height="55" viewBox="0 0 48 55" fill="none" xmlns="http://www.w3.org/2000/svg">
<g clip-path="url(#clip0_2697_1298)">
<path d="M47.4566 25.1898C46.9856 24.4268 46.197 23.8805 45.2788 23.6813V18.9835C45.2788 8.52485 35.7229 0 23.9785 0C12.234 0 2.67814 8.52485 2.67814 18.9835V23.6813C1.75627 23.8925 0.970643 24.4542 0.511266 25.2303C0.15414 25.8736 -0.0212421 26.5916 0.00205176 27.316V37.6531C-0.0193461 38.3741 0.1559 39.0884 0.511266 39.7287C1.23703 40.893 2.61787 41.56 4.05411 41.4397H5.73343C5.80223 42.5104 6.75254 43.3451 7.90029 43.3432H9.80714C11.0039 43.3432 11.974 42.4366 11.974 41.3183V23.4485C11.974 22.3301 11.0039 21.4235 9.80714 21.4235H7.84613C6.64934 21.4235 5.67926 22.3301 5.67926 23.4485V23.5294H4.80167V18.9835C4.80167 9.62844 13.3825 2.0249 23.9351 2.0249C34.4879 2.0249 43.0686 9.62844 43.0686 18.9835V23.5294H42.1911V23.4485C42.1911 22.3301 41.221 21.4235 40.0242 21.4235H38.204C37.0072 21.4235 36.0371 22.3301 36.0371 23.4485V41.3891C36.0632 42.4027 36.8872 43.242 37.9657 43.3532C37.759 44.6409 37.1482 45.8425 36.2104 46.8057C34.5095 48.5673 31.7359 49.5798 27.998 49.8431V49.3976C27.9395 48.231 26.8849 47.3268 25.6362 47.3727H20.9882C19.7394 47.3268 18.6848 48.231 18.6263 49.3976V52.435C18.6848 53.6015 19.7394 54.5057 20.9882 54.4598H25.6795C26.9283 54.5057 27.9828 53.6015 28.0413 52.435V51.868C32.4293 51.5947 35.7446 50.3594 37.8573 48.1826C39.1738 46.8432 40.0041 45.1495 40.23 43.3432C41.3235 43.2837 42.1976 42.4713 42.2669 41.4498H43.9462C45.3823 41.5701 46.7633 40.9032 47.489 39.7388C47.8444 39.0985 48.0196 38.3843 47.9982 37.6633V27.316C48.0189 26.5753 47.8323 25.8424 47.4566 25.1898ZM7.90029 39.4959V25.5138C7.9114 25.3959 7.9114 25.2774 7.90029 25.1594V23.4889L9.72047 23.4383V41.3283H7.90029V39.4959ZM5.73343 25.4632V39.4148H4.05411C2.79731 39.4148 2.50478 38.9187 2.40728 38.7466C2.23204 38.4026 2.1501 38.0236 2.16893 37.643V27.316C2.14495 26.9329 2.2231 26.5502 2.39645 26.2023C2.49395 26.0404 2.78648 25.5341 4.04326 25.5341L5.73343 25.4632ZM25.9178 50.8758V52.2629C25.8697 52.3453 25.7796 52.3987 25.6795 52.4046H20.9882C20.9305 52.4085 20.8726 52.4085 20.8149 52.4046V49.4482C20.8753 49.4017 20.9536 49.3798 21.0315 49.3875H25.7228C25.842 49.3875 25.9178 49.3875 25.9178 49.3875V50.8758ZM40.0675 25.5138V41.3283H39.2116H39.0816H38.9949H38.2365V23.4485H40.1L40.0675 25.5138ZM45.5497 38.7668C45.4522 38.9289 45.1597 39.4351 43.9029 39.4351H42.2344V25.5543H43.9029C45.1597 25.5543 45.4522 26.0504 45.5497 26.2225C45.7249 26.5666 45.8069 26.9455 45.788 27.3261V37.6633C45.8068 38.0438 45.7249 38.4229 45.5497 38.7668Z" fill="#AACBDE"/>
</g>
<defs>
<clipPath id="clip0_2697_1298">
<rect width="48" height="54.4615" fill="white"/>
</clipPath>
</defs>
</svg>
