<svg width="50" height="50" viewBox="0 0 50 50" fill="none" xmlns="http://www.w3.org/2000/svg">
<g clip-path="url(#clip0_2697_1278)">
<path d="M49.9138 4.95064C49.7578 4.64277 49.4206 4.46969 49.0806 4.52288L44.8205 5.17958L45.4772 0.919474C45.5298 0.578516 45.3572 0.242346 45.0495 0.0862824C44.7416 -0.0697814 44.3684 -0.0103134 44.1245 0.233729L39.1794 5.17883C39.0595 5.29883 38.9808 5.45383 38.9551 5.62149L38.1723 10.6995L35.3416 13.5302C31.4422 9.91 26.3946 7.92447 21.038 7.92447C15.4141 7.92447 10.1299 10.1116 6.15861 14.0829C2.18713 18.0543 0 23.3385 0 28.9623C0 34.5862 2.18713 39.8703 6.1584 43.8417C10.1298 47.813 15.414 50 21.0378 50C26.6615 50 31.9458 47.8129 35.9171 43.8416C39.8884 39.8702 42.0755 34.586 42.0755 28.9622C42.0755 24.4887 40.693 20.2187 38.0773 16.6137C37.8185 16.2569 37.3193 16.1776 36.963 16.4365C36.6063 16.6953 36.5269 17.1942 36.7857 17.5509C39.2024 20.8817 40.4798 24.8277 40.4798 28.9623C40.4798 39.6827 31.7581 48.4043 21.0378 48.4043C10.3174 48.4043 1.59574 39.6827 1.59574 28.9623C1.59574 18.242 10.3174 9.52032 21.0378 9.52032C25.9681 9.52032 30.615 11.34 34.2122 14.6595L30.565 18.3067C27.9423 15.9582 24.5831 14.6713 21.0377 14.6713C13.1574 14.6713 6.74649 21.0823 6.74649 28.9625C6.74649 36.8426 13.1574 43.2536 21.0377 43.2536C28.9179 43.2536 35.3287 36.8426 35.3287 28.9625C35.3287 26.3323 34.6096 23.7622 33.2491 21.5299C33.0198 21.1536 32.5288 21.0344 32.1525 21.2638C31.7763 21.4931 31.6572 21.9842 31.8865 22.3604C33.0944 24.3426 33.7329 26.6255 33.7329 28.9626C33.7329 35.9629 28.0378 41.658 21.0375 41.658C14.0372 41.658 8.34212 35.9629 8.34212 28.9626C8.34212 21.9622 14.0372 16.2671 21.0375 16.2671C24.1574 16.2671 27.1153 17.3882 29.4351 19.4366L25.7792 23.0925C24.4415 22.0081 22.7855 21.418 21.0375 21.418C16.8775 21.418 13.4931 24.8024 13.4931 28.9626C13.4931 33.1227 16.8775 36.507 21.0375 36.507C25.1977 36.507 28.582 33.1227 28.582 28.9626C28.582 28.2214 28.4748 27.4888 28.2634 26.7851C28.1366 26.3631 27.6917 26.1235 27.2697 26.2506C26.8477 26.3773 26.6083 26.8222 26.7352 27.2444C26.9018 27.799 26.9863 28.377 26.9863 28.9626C26.9863 32.2427 24.3177 34.9113 21.0375 34.9113C17.7574 34.9113 15.0888 32.2427 15.0888 28.9626C15.0888 25.6823 17.7574 23.0137 21.0375 23.0137C22.3584 23.0137 23.612 23.4415 24.6424 24.2293L20.4733 28.3984C20.1617 28.7101 20.1617 29.2152 20.4733 29.5268C20.629 29.6826 20.8333 29.7604 21.0374 29.7604C21.2416 29.7604 21.4458 29.6826 21.6016 29.5268L35.9142 15.2142C35.9191 15.2093 39.3002 11.8282 39.3002 11.8282L44.3782 11.0453C44.5458 11.0196 44.7008 10.941 44.8208 10.8211L49.7659 5.87596C50.0103 5.6316 50.0698 5.25841 49.9138 4.95064ZM40.4922 6.12266L43.5286 3.08639L43.1173 5.75437L40.0809 8.79075L40.4922 6.12266ZM43.8773 9.50788L41.2095 9.91915L44.2458 6.88277L46.9136 6.47149L43.8773 9.50788Z" fill="#AACBDE"/>
</g>
<defs>
<clipPath id="clip0_2697_1278">
<rect width="50" height="50" fill="white"/>
</clipPath>
</defs>
</svg>
