<svg width="15" height="15" viewBox="0 0 15 15" fill="none" xmlns="http://www.w3.org/2000/svg">
<path d="M12.8438 13.5V4.84375H2.15625V13.5H12.8438ZM12.8438 1.5C13.1979 1.5 13.5 1.63542 13.75 1.90625C14.0208 2.17708 14.1562 2.48958 14.1562 2.84375V13.5C14.1562 13.8542 14.0208 14.1667 13.75 14.4375C13.5 14.7083 13.1979 14.8438 12.8438 14.8438H2.15625C1.80208 14.8438 1.48958 14.7083 1.21875 14.4375C0.96875 14.1667 0.84375 13.8542 0.84375 13.5V2.84375C0.84375 2.48958 0.96875 2.17708 1.21875 1.90625C1.48958 1.63542 1.80208 1.5 2.15625 1.5H2.84375V0.15625H4.15625V1.5H10.8438V0.15625H12.1562V1.5H12.8438Z" fill="#25A7DB"/>
</svg>
