<svg width="50" height="43" viewBox="0 0 50 43" fill="none" xmlns="http://www.w3.org/2000/svg">
<g clip-path="url(#clip0_2697_1287)">
<path d="M46.2435 22.4167C45.6917 22.4167 45.1821 22.556 44.7302 22.7659C44.0431 21.8565 42.9765 21.2679 41.7743 21.2667C41.153 21.2667 40.5815 21.4373 40.0905 21.6929L40.0392 21.7224L38.504 22.6647C37.8158 21.813 36.7851 21.2673 35.6286 21.2667C35.0074 21.2667 34.4358 21.4373 33.9448 21.6929L33.8834 21.7287L28.0057 25.4544C26.6785 25.0485 25.2047 24.6033 23.7806 24.1853C22.2785 23.7441 20.8337 23.3342 19.6757 23.0318C19.0958 22.8803 18.5885 22.756 18.174 22.6676C17.9662 22.623 17.7818 22.5878 17.6182 22.5618C17.4523 22.5364 17.3136 22.5185 17.1574 22.5179C17.0366 22.5185 16.9321 22.5294 16.8132 22.5445C16.3803 22.6035 15.7645 22.7399 15.0383 22.9162C13.5545 23.277 11.6607 23.8019 10.6144 24.0967V22.2639C10.6144 20.992 9.60882 19.9512 8.37969 19.9512H2.23466C1.00556 19.9514 0 20.9921 0 22.2641V40.1873C0 41.4592 1.00556 42.5 2.23466 42.5H8.37978C9.60882 42.5 10.6145 41.4593 10.6145 40.1873V38.7957C11.9407 39.0945 14.8843 39.7525 17.9876 40.4122C20.0865 40.858 22.2556 41.3043 24.0473 41.6407C24.9434 41.809 25.745 41.9495 26.4015 42.0489C27.0635 42.1479 27.5567 42.2091 27.9327 42.2114C28.2254 42.2103 28.5025 42.153 28.8019 42.0674C29.359 41.9049 29.993 41.6292 30.7186 41.2644C33.2443 39.9901 36.8715 37.6027 40.2934 35.2404C43.709 32.8809 46.9039 30.551 48.4693 29.4351C49.4491 28.7361 50 27.555 50 26.305C49.9984 24.1581 48.3184 22.4178 46.2435 22.4167ZM8.93838 40.187C8.93838 40.5004 8.68252 40.7652 8.37978 40.7652H2.23466C1.93194 40.7652 1.67607 40.5004 1.67607 40.187V22.2641C1.67607 21.9508 1.93194 21.686 2.23466 21.686H8.37978C8.68252 21.686 8.93838 21.9508 8.93838 22.2641V40.187ZM47.5189 28.0063C45.5938 29.3789 41.286 32.527 37.1163 35.3299C35.0331 36.7303 32.9845 38.0433 31.3047 38.9949C30.4656 39.4708 29.717 39.8552 29.1186 40.1126C28.8198 40.2409 28.5583 40.3375 28.351 40.397C28.1448 40.4576 27.9895 40.4779 27.9331 40.4767C27.7504 40.4785 27.2667 40.4287 26.6449 40.3327C24.4438 39.9991 20.3238 39.1474 16.7763 38.3814C15.0009 37.9981 13.3656 37.6361 12.1741 37.3701C11.4819 37.2158 10.9478 37.0949 10.6148 37.0203V25.8954C10.7786 25.8485 10.9931 25.7879 11.2505 25.7156C12.1339 25.4676 13.4818 25.0958 14.6908 24.7877C15.2947 24.6333 15.8652 24.4959 16.3182 24.398C16.5438 24.3495 16.7411 24.3108 16.8925 24.2858C17.041 24.2604 17.1566 24.2512 17.1578 24.2529C17.1606 24.2523 17.2484 24.2581 17.3679 24.2773C17.8305 24.3489 18.7785 24.5784 19.9331 24.8912C23.413 25.832 28.9 27.5323 31.1168 28.229C31.8838 28.4683 32.5782 28.8291 33.0341 29.2668C33.2632 29.4854 33.4353 29.719 33.5509 29.9716C33.6665 30.2254 33.7318 30.5 33.733 30.8359C33.7325 31.5164 33.4687 32.1246 33.0381 32.5717C32.6102 33.0128 32.0291 33.2828 31.3805 33.2891L29.218 33.07L21.8376 32.0894C21.3784 32.0287 20.9582 32.3639 20.899 32.8392C20.8397 33.3145 21.1649 33.7486 21.6235 33.8099L29.0278 34.7933L31.3195 35.0256H31.3607C33.5959 35.0251 35.4076 33.1501 35.4088 30.8362C35.4098 30.2541 35.2854 29.7065 35.0646 29.2272C34.7324 28.5051 34.1976 27.946 33.5932 27.5204C32.9865 27.0937 32.3015 26.7897 31.6044 26.57C31.2156 26.448 30.7257 26.2942 30.1659 26.1201L34.7139 23.2368C35.0088 23.0865 35.3105 23.0015 35.6301 23.0009C36.172 23.0003 36.6614 23.2177 37.0313 23.5693L34.7844 24.9482C34.3866 25.1923 34.2554 25.7247 34.4917 26.1364C34.728 26.548 35.242 26.6845 35.6403 26.44L40.8558 23.2387C41.1525 23.0866 41.4558 23.0011 41.7765 23.0011C42.3548 23.0005 42.8749 23.2497 43.2519 23.6452L37.1789 27.3726C36.7805 27.6167 36.6499 28.1491 36.8863 28.5613C37.1225 28.9729 37.6365 29.1088 38.0347 28.8642L44.6017 24.8332C44.6655 24.8222 44.7297 24.806 44.7923 24.7782C44.9268 24.7192 45.0365 24.6256 45.1207 24.5146L45.3257 24.3885C45.6223 24.2364 45.9257 24.1509 46.2463 24.1509C46.8223 24.1515 47.3373 24.391 47.7167 24.7818C48.0944 25.1744 48.3255 25.708 48.3263 26.3047C48.3235 27.0315 48.0016 27.6663 47.5189 28.0063Z" fill="#AACBDE"/>
<path d="M30.281 9.87388C29.5453 9.31537 28.6927 9.00833 27.8464 8.76031C27.7314 8.72675 27.6185 8.69966 27.5035 8.66834V3.37424C28.3208 3.50087 28.9251 3.76456 29.3274 4.08999C29.6123 4.31901 29.8084 4.57572 29.943 4.86416C30.0754 5.15271 30.1464 5.47815 30.1469 5.85159C30.1469 6.33035 30.5223 6.71885 30.9849 6.71885C31.4475 6.71885 31.8229 6.33035 31.8229 5.85159C31.8234 5.2462 31.7034 4.65365 31.4554 4.11657C31.0844 3.30773 30.4241 2.64524 29.5654 2.21388C28.9715 1.91431 28.2788 1.7241 27.504 1.62991V0.867259C27.504 0.387897 27.1286 0 26.666 0C26.2028 0 25.828 0.387897 25.828 0.867259V1.58191C25.2208 1.63041 24.6754 1.75362 24.1928 1.94383C23.2442 2.31505 22.5499 2.94864 22.1202 3.66035C21.6889 4.37257 21.509 5.14675 21.5085 5.85159C21.5062 6.59333 21.6788 7.26118 22.0035 7.80522C22.2855 8.28165 22.6688 8.65166 23.0867 8.93556C23.8212 9.4322 24.6604 9.69935 25.4966 9.93055C25.6067 9.96011 25.7172 9.98901 25.8274 10.0172V15.7122C25.0122 15.6191 24.3871 15.3484 23.9676 14.9795C23.4531 14.5217 23.1895 13.9383 23.1838 13.1936C23.1838 12.7143 22.8085 12.3263 22.3459 12.3263C21.8833 12.3263 21.5079 12.7143 21.5079 13.1936C21.5017 14.406 22.0011 15.537 22.8849 16.3036C23.643 16.9672 24.6542 17.365 25.8273 17.4634V18.2166C25.8273 18.6955 26.2021 19.0839 26.6653 19.0839C27.1279 19.0839 27.5033 18.6955 27.5033 18.2166V17.4321C28.4519 17.3331 29.3378 17.091 30.0955 16.6053C30.6127 16.2711 31.0614 15.8087 31.3642 15.2242C31.6693 14.6413 31.8234 13.9523 31.8223 13.1936C31.8233 12.4021 31.6592 11.7002 31.3474 11.1151C31.076 10.603 30.6994 10.1929 30.281 9.87388ZM25.8268 8.22434C25.0112 7.99826 24.308 7.73356 23.8783 7.39236C23.647 7.21135 23.4872 7.02114 23.3726 6.78929C23.2591 6.55573 23.1849 6.26596 23.1837 5.85149C23.1832 5.31846 23.3726 4.68012 23.8351 4.19398C24.0681 3.9483 24.3719 3.72918 24.7881 3.56495C25.0748 3.45226 25.421 3.36887 25.8267 3.32562V8.22434H25.8268ZM29.8893 14.3998C29.7709 14.6254 29.6184 14.811 29.4195 14.9775C29.1222 15.225 28.71 15.4244 28.196 15.5568C27.9815 15.6122 27.7474 15.6533 27.5033 15.6851V10.4649C28.0156 10.618 28.4849 10.787 28.8648 10.9984C29.2888 11.2308 29.5944 11.4945 29.8022 11.8195C30.0078 12.1461 30.1435 12.5561 30.1463 13.1932C30.1452 13.7177 30.0446 14.0997 29.8893 14.3998Z" fill="#AACBDE"/>
</g>
<defs>
<clipPath id="clip0_2697_1287">
<rect width="50" height="42.5" fill="white"/>
</clipPath>
</defs>
</svg>
